<?xml version="1.0" standalone="no"?>
<!DOCTYPE svg PUBLIC "-//W3C//DTD SVG 20010904//EN"
 "http://www.w3.org/TR/2001/REC-SVG-20010904/DTD/svg10.dtd">
<svg version="1.0" xmlns="http://www.w3.org/2000/svg"
 width="1280.000000pt" height="637.000000pt" viewBox="0 0 1280.000000 637.000000"
 preserveAspectRatio="xMidYMid meet">
<metadata>
Created by potrace 1.16, written by Peter Selinger 2001-2019
</metadata>
<g transform="translate(0.000000,637.000000) scale(0.100000,-0.100000)"
fill="#000000" stroke="none">
<path d="M140 4634 l0 -1236 358 5 c383 4 405 7 516 61 124 61 222 210 251
383 14 79 15 198 13 830 -4 819 -1 783 -73 928 -41 85 -127 175 -199 210 -98
48 -162 55 -528 55 l-338 0 0 -1236z m713 952 c66 -32 100 -76 129 -169 17
-55 18 -110 18 -780 0 -788 0 -790 -58 -872 -33 -47 -81 -81 -131 -94 -20 -5
-116 -13 -213 -16 l-178 -7 0 987 0 987 188 -3 c182 -4 189 -5 245 -33z"/>
<path d="M1890 4635 l0 -1235 140 0 140 0 0 1235 0 1235 -140 0 -140 0 0
-1235z"/>
<path d="M2800 4635 l0 -1235 510 0 510 0 0 132 0 131 -370 -6 -370 -5 0 439
0 439 300 0 300 0 0 58 c0 31 3 87 7 125 l6 67 -307 0 -306 0 0 420 0 420 370
0 370 0 0 125 0 125 -510 0 -510 0 0 -1235z"/>
<path d="M4330 5739 l0 -130 228 7 227 7 -3 -1112 -3 -1111 141 0 140 0 2
1108 3 1107 228 3 227 2 0 125 0 125 -595 0 -595 0 0 -131z"/>
<path d="M6060 4635 l0 -1235 140 0 140 0 0 1235 0 1235 -140 0 -140 0 0
-1235z"/>
<path d="M6880 5739 l0 -130 225 7 225 7 0 -1112 0 -1111 140 0 140 0 0 1110
0 1110 230 0 230 0 0 125 0 125 -595 0 -595 0 0 -131z"/>
<path d="M8610 4635 l0 -1235 140 0 140 0 0 1235 0 1235 -140 0 -140 0 0
-1235z"/>
<path d="M9917 5848 c-8 -31 -467 -2433 -467 -2441 0 -4 58 -7 129 -7 l128 0
41 213 c22 116 44 229 48 250 l6 37 311 -2 311 -3 7 -35 c4 -19 24 -131 45
-247 l38 -213 143 0 c109 0 141 3 138 13 -5 13 -451 2360 -460 2420 l-6 37
-203 0 c-203 0 -204 0 -209 -22z m248 -588 c26 -140 85 -448 131 -684 46 -237
82 -431 81 -432 -1 0 -123 -4 -271 -8 l-269 -6 6 27 c3 16 63 331 133 700 71
370 131 669 135 665 4 -4 28 -122 54 -262z"/>
<path d="M11360 4635 l0 -1235 125 0 125 0 1 993 0 992 96 -305 c52 -168 192
-614 311 -992 l216 -688 148 0 148 0 0 1235 0 1235 -125 0 -125 0 -2 -880 -3
-880 -267 838 c-147 460 -272 856 -278 880 l-11 42 -179 0 -180 0 0 -1235z"/>
<path d="M40 2970 l0 -130 230 0 230 0 0 -1110 0 -1110 73 0 c39 0 102 3 140
7 l67 6 0 1103 0 1104 225 0 225 0 0 130 0 130 -595 0 -595 0 0 -130z"/>
<path d="M1631 3048 c-34 -170 -461 -2410 -461 -2418 0 -11 161 -14 222 -4 30
5 38 12 42 33 3 14 24 124 47 244 l41 217 313 0 314 0 7 -57 c3 -32 23 -143
43 -248 l37 -190 133 2 c74 1 136 5 139 8 3 3 -96 540 -221 1193 -124 653
-229 1206 -232 1230 l-7 42 -203 0 -204 0 -10 -52z m253 -553 c86 -456 207
-1090 213 -1112 l5 -23 -272 0 -272 0 5 28 c3 15 63 329 134 699 70 370 130
669 134 665 3 -4 26 -119 53 -257z"/>
<path d="M2470 3087 c0 -7 117 -368 260 -802 l260 -790 0 -437 0 -438 74 0
c40 0 101 3 135 6 l61 7 0 437 0 436 265 793 c146 437 265 795 265 797 0 2
-60 4 -134 4 -131 0 -135 -1 -141 -22 -4 -13 -71 -225 -150 -473 -78 -247
-160 -507 -181 -577 -21 -71 -41 -128 -44 -128 -6 0 -347 1067 -355 1112 -3
11 -9 36 -15 54 l-12 34 -144 0 c-110 0 -144 -3 -144 -13z"/>
<path d="M3801 1862 l-3 -1238 493 3 c272 2 544 3 604 3 l110 0 44 232 c24
128 46 239 48 246 4 9 76 12 313 12 346 0 314 8 325 -80 3 -24 22 -129 42
-233 l36 -190 135 7 c75 3 137 8 139 10 2 2 -97 532 -220 1177 -124 646 -229
1199 -233 1229 l-9 55 -204 0 -205 0 -211 -1105 -212 -1105 -357 -3 -357 -2 3
1110 3 1110 -140 0 -140 0 -4 -1238z m1658 633 c28 -148 89 -463 134 -700 l83
-430 -265 -3 c-145 -1 -266 0 -269 3 -3 3 52 308 122 678 70 369 130 685 133
700 3 15 7 26 8 25 2 -2 26 -124 54 -273z"/>
<path d="M7064 2879 c-233 -18 -469 -132 -634 -306 -119 -124 -193 -254 -247
-430 -24 -81 -27 -102 -27 -268 -1 -158 2 -190 22 -265 79 -289 274 -527 538
-656 90 -44 235 -87 328 -97 l48 -5 -6 37 c-3 20 -6 50 -6 67 0 31 0 31 -87
48 -184 36 -315 108 -458 251 -114 114 -166 196 -216 345 -29 85 -33 109 -37
238 -5 173 16 282 79 413 326 673 1272 673 1598 0 63 -131 84 -240 79 -413 -4
-126 -8 -154 -36 -238 -101 -304 -362 -534 -675 -596 -78 -15 -87 -19 -87 -39
0 -12 -3 -43 -6 -68 l-7 -45 44 5 c420 49 762 348 870 761 13 47 23 125 26
202 10 237 -46 435 -179 633 -53 79 -175 201 -257 256 -132 90 -311 156 -451
167 -36 3 -78 6 -95 7 -16 2 -71 0 -121 -4z"/>
<path d="M9173 2876 c-209 -40 -382 -132 -542 -288 -83 -82 -141 -165 -195
-279 -74 -156 -90 -235 -91 -434 0 -147 3 -181 23 -255 60 -220 205 -433 387
-568 309 -229 762 -255 1098 -62 95 54 225 165 293 250 225 278 284 672 152
1010 -32 84 -75 157 -144 246 -144 186 -319 303 -544 361 -119 31 -326 40
-437 19z m392 -146 c274 -69 510 -280 611 -546 76 -203 72 -453 -11 -647 -54
-128 -95 -187 -195 -287 -100 -100 -159 -141 -287 -195 -146 -63 -340 -82
-505 -51 -329 63 -601 320 -689 651 -31 116 -31 318 0 434 92 350 383 611 734
661 90 13 250 4 342 -20z"/>
<path d="M9208 2730 c-405 -74 -699 -398 -725 -801 -19 -310 124 -602 382
-776 82 -55 126 -76 224 -107 213 -67 436 -50 637 49 232 113 399 319 465 570
29 113 30 289 1 407 -77 316 -317 559 -637 644 -69 18 -278 27 -347 14z m640
-296 c25 -18 136 -161 153 -197 15 -32 5 -73 -21 -87 -36 -19 -80 13 -152 112
-55 73 -68 99 -68 128 0 58 40 78 88 44z m-151 -46 c71 -77 234 -307 239 -340
9 -56 -35 -85 -87 -57 -27 14 -257 323 -265 355 -19 74 56 102 113 42z m-199
-4 c22 -15 337 -426 360 -471 20 -36 14 -71 -12 -89 -47 -30 -76 -3 -263 248
-141 189 -173 237 -173 264 0 57 43 80 88 48z m71 -335 c29 -39 51 -72 49 -73
-2 -1 -88 -69 -193 -151 -104 -82 -206 -161 -227 -177 l-36 -28 -52 70 c-29
39 -49 74 -46 78 14 14 441 351 446 351 3 1 29 -31 59 -70z m-671 -135 c29
-20 349 -445 363 -481 13 -35 4 -70 -21 -83 -43 -23 -78 11 -257 252 -153 204
-173 236 -173 269 0 55 42 76 88 43z m-73 -161 c10 -3 73 -81 141 -172 105
-140 124 -171 124 -201 0 -62 -43 -79 -94 -39 -27 21 -221 273 -244 316 -15
28 -15 76 0 91 13 13 47 16 73 5z m-67 -169 c22 -15 129 -151 150 -191 39 -72
-26 -131 -89 -80 -8 6 -45 52 -82 101 -55 73 -67 96 -67 127 0 55 42 76 88 43z"/>
<path d="M11395 2880 c-292 -26 -569 -189 -737 -434 -59 -85 -116 -213 -145
-324 -22 -84 -26 -118 -26 -247 0 -129 4 -163 26 -248 96 -362 355 -623 723
-729 69 -20 102 -23 254 -23 152 0 186 3 260 23 182 50 327 136 465 277 186
189 285 432 285 700 0 391 -212 730 -567 909 -87 44 -218 83 -305 91 -124 11
-154 12 -233 5z m319 -150 c300 -77 543 -313 630 -613 88 -302 5 -633 -214
-857 -114 -117 -221 -183 -380 -236 -80 -26 -95 -28 -255 -28 -159 0 -176 2
-255 28 -302 99 -515 320 -602 623 -30 105 -32 332 -4 438 39 149 122 295 229
404 141 144 317 234 509 261 89 12 253 3 342 -20z"/>
<path d="M11330 2725 c-295 -61 -533 -259 -643 -535 -69 -173 -76 -403 -19
-580 75 -229 249 -425 466 -525 275 -127 614 -96 859 79 85 60 196 179 246
263 90 151 127 310 118 496 -7 135 -32 229 -93 347 -126 245 -363 417 -634
460 -87 13 -220 11 -300 -5z m750 -290 l23 -24 -32 -578 c-25 -447 -36 -583
-47 -600 l-14 -23 -520 0 c-572 0 -544 -3 -554 63 -7 46 -56 999 -56 1084 0
63 3 74 22 87 20 14 92 16 588 16 l567 0 23 -25z"/>
<path d="M10985 2350 c-23 -25 -23 -18 10 -598 16 -278 28 -428 36 -438 10
-12 84 -14 455 -14 l444 0 14 23 c11 17 21 141 41 507 14 267 23 494 19 503
-3 10 -15 22 -25 27 -11 6 -206 10 -497 10 -470 0 -479 0 -497 -20z m630 -85
c93 -19 165 -53 165 -77 0 -27 -24 -69 -57 -100 -92 -88 -304 -104 -430 -32
-51 30 -93 82 -96 121 -2 24 4 31 44 51 99 49 247 64 374 37z"/>
<path d="M7035 2734 c-346 -56 -628 -311 -717 -649 -30 -117 -30 -309 0 -423
45 -167 117 -290 242 -412 113 -110 255 -188 411 -225 116 -27 109 -35 109
114 l0 129 -43 25 c-98 58 -176 187 -203 339 -15 82 -15 100 15 464 36 437 39
457 56 481 13 17 14 16 23 -8 6 -15 15 -150 21 -300 19 -482 21 -519 37 -519
9 0 14 11 14 27 0 64 52 751 58 777 9 35 27 44 37 19 4 -10 17 -198 29 -417
15 -282 24 -401 33 -403 16 -6 19 25 43 422 21 331 31 415 50 415 20 0 30 -91
50 -445 11 -203 20 -376 20 -382 0 -7 7 -13 15 -13 11 0 15 11 15 43 0 23 7
203 15 400 13 313 21 397 40 397 18 0 30 -91 59 -452 37 -443 36 -491 -5 -607
-39 -112 -116 -210 -191 -243 l-28 -13 0 -132 c0 -155 -8 -147 122 -114 412
106 690 479 664 892 -23 371 -279 689 -636 789 -74 21 -284 35 -355 24z"/>
</g>
</svg>
