<?xml version="1.0" encoding="UTF-8"?>
<svg xmlns="http://www.w3.org/2000/svg" xmlns:xlink="http://www.w3.org/1999/xlink" width="375pt" height="374.999991pt" viewBox="0 0 375 374.999991" version="1.2">
<defs>
<clipPath id="clip1">
  <path d="M 132 24 L 247 24 L 247 139 L 132 139 Z M 132 24 "/>
</clipPath>
<clipPath id="clip2">
  <path d="M 109.761719 73.191406 L 198.566406 1.707031 L 270.050781 90.511719 L 181.246094 161.996094 Z M 109.761719 73.191406 "/>
</clipPath>
<clipPath id="clip3">
  <path d="M 109.761719 73.191406 L 198.566406 1.707031 L 270.050781 90.511719 L 181.246094 161.996094 Z M 109.761719 73.191406 "/>
</clipPath>
<clipPath id="clip4">
  <path d="M 167 62 L 213 62 L 213 102 L 167 102 Z M 167 62 "/>
</clipPath>
<clipPath id="clip5">
  <path d="M 109.761719 73.191406 L 198.566406 1.707031 L 270.050781 90.511719 L 181.246094 161.996094 Z M 109.761719 73.191406 "/>
</clipPath>
<clipPath id="clip6">
  <path d="M 109.761719 73.191406 L 198.566406 1.707031 L 270.050781 90.511719 L 181.246094 161.996094 Z M 109.761719 73.191406 "/>
</clipPath>
<clipPath id="clip7">
  <path d="M 166 61 L 214 61 L 214 103 L 166 103 Z M 166 61 "/>
</clipPath>
<clipPath id="clip8">
  <path d="M 109.761719 73.191406 L 198.566406 1.707031 L 270.050781 90.511719 L 181.246094 161.996094 Z M 109.761719 73.191406 "/>
</clipPath>
<clipPath id="clip9">
  <path d="M 109.761719 73.191406 L 198.566406 1.707031 L 270.050781 90.511719 L 181.246094 161.996094 Z M 109.761719 73.191406 "/>
</clipPath>
<clipPath id="clip10">
  <path d="M 150 77 L 188 77 L 188 120 L 150 120 Z M 150 77 "/>
</clipPath>
<clipPath id="clip11">
  <path d="M 109.761719 73.191406 L 198.566406 1.707031 L 270.050781 90.511719 L 181.246094 161.996094 Z M 109.761719 73.191406 "/>
</clipPath>
<clipPath id="clip12">
  <path d="M 109.761719 73.191406 L 198.566406 1.707031 L 270.050781 90.511719 L 181.246094 161.996094 Z M 109.761719 73.191406 "/>
</clipPath>
<clipPath id="clip13">
  <path d="M 149 76 L 189 76 L 189 121 L 149 121 Z M 149 76 "/>
</clipPath>
<clipPath id="clip14">
  <path d="M 109.761719 73.191406 L 198.566406 1.707031 L 270.050781 90.511719 L 181.246094 161.996094 Z M 109.761719 73.191406 "/>
</clipPath>
<clipPath id="clip15">
  <path d="M 109.761719 73.191406 L 198.566406 1.707031 L 270.050781 90.511719 L 181.246094 161.996094 Z M 109.761719 73.191406 "/>
</clipPath>
<clipPath id="clip16">
  <path d="M 144 88 L 176 88 L 176 124 L 144 124 Z M 144 88 "/>
</clipPath>
<clipPath id="clip17">
  <path d="M 109.761719 73.191406 L 198.566406 1.707031 L 270.050781 90.511719 L 181.246094 161.996094 Z M 109.761719 73.191406 "/>
</clipPath>
<clipPath id="clip18">
  <path d="M 109.761719 73.191406 L 198.566406 1.707031 L 270.050781 90.511719 L 181.246094 161.996094 Z M 109.761719 73.191406 "/>
</clipPath>
<clipPath id="clip19">
  <path d="M 143 87 L 176 87 L 176 125 L 143 125 Z M 143 87 "/>
</clipPath>
<clipPath id="clip20">
  <path d="M 109.761719 73.191406 L 198.566406 1.707031 L 270.050781 90.511719 L 181.246094 161.996094 Z M 109.761719 73.191406 "/>
</clipPath>
<clipPath id="clip21">
  <path d="M 109.761719 73.191406 L 198.566406 1.707031 L 270.050781 90.511719 L 181.246094 161.996094 Z M 109.761719 73.191406 "/>
</clipPath>
<clipPath id="clip22">
  <path d="M 192 43 L 230 43 L 230 87 L 192 87 Z M 192 43 "/>
</clipPath>
<clipPath id="clip23">
  <path d="M 109.761719 73.191406 L 198.566406 1.707031 L 270.050781 90.511719 L 181.246094 161.996094 Z M 109.761719 73.191406 "/>
</clipPath>
<clipPath id="clip24">
  <path d="M 109.761719 73.191406 L 198.566406 1.707031 L 270.050781 90.511719 L 181.246094 161.996094 Z M 109.761719 73.191406 "/>
</clipPath>
<clipPath id="clip25">
  <path d="M 191 42 L 230 42 L 230 88 L 191 88 Z M 191 42 "/>
</clipPath>
<clipPath id="clip26">
  <path d="M 109.761719 73.191406 L 198.566406 1.707031 L 270.050781 90.511719 L 181.246094 161.996094 Z M 109.761719 73.191406 "/>
</clipPath>
<clipPath id="clip27">
  <path d="M 109.761719 73.191406 L 198.566406 1.707031 L 270.050781 90.511719 L 181.246094 161.996094 Z M 109.761719 73.191406 "/>
</clipPath>
<clipPath id="clip28">
  <path d="M 204 40 L 235 40 L 235 76 L 204 76 Z M 204 40 "/>
</clipPath>
<clipPath id="clip29">
  <path d="M 109.761719 73.191406 L 198.566406 1.707031 L 270.050781 90.511719 L 181.246094 161.996094 Z M 109.761719 73.191406 "/>
</clipPath>
<clipPath id="clip30">
  <path d="M 109.761719 73.191406 L 198.566406 1.707031 L 270.050781 90.511719 L 181.246094 161.996094 Z M 109.761719 73.191406 "/>
</clipPath>
<clipPath id="clip31">
  <path d="M 203 39 L 236 39 L 236 76 L 203 76 Z M 203 39 "/>
</clipPath>
<clipPath id="clip32">
  <path d="M 109.761719 73.191406 L 198.566406 1.707031 L 270.050781 90.511719 L 181.246094 161.996094 Z M 109.761719 73.191406 "/>
</clipPath>
<clipPath id="clip33">
  <path d="M 109.761719 73.191406 L 198.566406 1.707031 L 270.050781 90.511719 L 181.246094 161.996094 Z M 109.761719 73.191406 "/>
</clipPath>
<clipPath id="clip34">
  <path d="M 262.121094 31.71875 L 362.621094 31.71875 L 362.621094 132.21875 L 262.121094 132.21875 Z M 262.121094 31.71875 "/>
</clipPath>
<clipPath id="clip35">
  <path d="M 277.089844 47.589844 L 347.589844 47.589844 L 347.589844 118.089844 L 277.089844 118.089844 Z M 277.089844 47.589844 "/>
</clipPath>
<clipPath id="clip36">
  <path d="M 139.980469 31.71875 L 240.480469 31.71875 L 240.480469 132.21875 L 139.980469 132.21875 Z M 139.980469 31.71875 "/>
</clipPath>
<clipPath id="clip37">
  <path d="M 174 67 L 207 67 L 207 96 L 174 96 Z M 174 67 "/>
</clipPath>
<clipPath id="clip38">
  <path d="M 155.847656 43.390625 L 230.566406 49.871094 L 224.472656 120.109375 L 149.753906 113.625 Z M 155.847656 43.390625 "/>
</clipPath>
<clipPath id="clip39">
  <path d="M 155.847656 43.390625 L 230.566406 49.871094 L 224.472656 120.109375 L 149.753906 113.625 Z M 155.847656 43.390625 "/>
</clipPath>
<clipPath id="clip40">
  <path d="M 194 52 L 221 52 L 221 85 L 194 85 Z M 194 52 "/>
</clipPath>
<clipPath id="clip41">
  <path d="M 155.847656 43.390625 L 230.566406 49.871094 L 224.472656 120.109375 L 149.753906 113.625 Z M 155.847656 43.390625 "/>
</clipPath>
<clipPath id="clip42">
  <path d="M 155.847656 43.390625 L 230.566406 49.871094 L 224.472656 120.109375 L 149.753906 113.625 Z M 155.847656 43.390625 "/>
</clipPath>
<clipPath id="clip43">
  <path d="M 159 78 L 187 78 L 187 112 L 159 112 Z M 159 78 "/>
</clipPath>
<clipPath id="clip44">
  <path d="M 155.847656 43.390625 L 230.566406 49.871094 L 224.472656 120.109375 L 149.753906 113.625 Z M 155.847656 43.390625 "/>
</clipPath>
<clipPath id="clip45">
  <path d="M 155.847656 43.390625 L 230.566406 49.871094 L 224.472656 120.109375 L 149.753906 113.625 Z M 155.847656 43.390625 "/>
</clipPath>
<clipPath id="clip46">
  <path d="M 151 97 L 167 97 L 167 115 L 151 115 Z M 151 97 "/>
</clipPath>
<clipPath id="clip47">
  <path d="M 155.847656 43.390625 L 230.566406 49.871094 L 224.472656 120.109375 L 149.753906 113.625 Z M 155.847656 43.390625 "/>
</clipPath>
<clipPath id="clip48">
  <path d="M 155.847656 43.390625 L 230.566406 49.871094 L 224.472656 120.109375 L 149.753906 113.625 Z M 155.847656 43.390625 "/>
</clipPath>
<clipPath id="clip49">
  <path d="M 155 87 L 177 87 L 177 113 L 155 113 Z M 155 87 "/>
</clipPath>
<clipPath id="clip50">
  <path d="M 155.847656 43.390625 L 230.566406 49.871094 L 224.472656 120.109375 L 149.753906 113.625 Z M 155.847656 43.390625 "/>
</clipPath>
<clipPath id="clip51">
  <path d="M 155.847656 43.390625 L 230.566406 49.871094 L 224.472656 120.109375 L 149.753906 113.625 Z M 155.847656 43.390625 "/>
</clipPath>
<clipPath id="clip52">
  <path d="M 214 49 L 229 49 L 229 67 L 214 67 Z M 214 49 "/>
</clipPath>
<clipPath id="clip53">
  <path d="M 155.847656 43.390625 L 230.566406 49.871094 L 224.472656 120.109375 L 149.753906 113.625 Z M 155.847656 43.390625 "/>
</clipPath>
<clipPath id="clip54">
  <path d="M 155.847656 43.390625 L 230.566406 49.871094 L 224.472656 120.109375 L 149.753906 113.625 Z M 155.847656 43.390625 "/>
</clipPath>
<clipPath id="clip55">
  <path d="M 204 50 L 225 50 L 225 76 L 204 76 Z M 204 50 "/>
</clipPath>
<clipPath id="clip56">
  <path d="M 155.847656 43.390625 L 230.566406 49.871094 L 224.472656 120.109375 L 149.753906 113.625 Z M 155.847656 43.390625 "/>
</clipPath>
<clipPath id="clip57">
  <path d="M 155.847656 43.390625 L 230.566406 49.871094 L 224.472656 120.109375 L 149.753906 113.625 Z M 155.847656 43.390625 "/>
</clipPath>
<clipPath id="clip58">
  <path d="M 8.25 24.710938 L 123 24.710938 L 123 138.710938 L 8.25 138.710938 Z M 8.25 24.710938 "/>
</clipPath>
<clipPath id="clip59">
  <path d="M 15.546875 31.71875 L 116.046875 31.71875 L 116.046875 132.21875 L 15.546875 132.21875 Z M 15.546875 31.71875 "/>
</clipPath>
</defs>
<g id="surface1">
<g clip-path="url(#clip1)" clip-rule="nonzero">
<g clip-path="url(#clip2)" clip-rule="nonzero">
<g clip-path="url(#clip3)" clip-rule="nonzero">
<path style=" stroke:none;fill-rule:nonzero;fill:rgb(3.919983%,27.839661%,41.958618%);fill-opacity:1;" d="M 234.273438 46.109375 C 254.011719 70.628906 250.132812 106.503906 225.613281 126.242188 C 201.09375 145.980469 165.21875 142.105469 145.480469 117.585938 C 125.742188 93.066406 129.621094 57.191406 154.140625 37.453125 C 178.660156 17.714844 214.535156 21.589844 234.273438 46.109375 "/>
</g>
</g>
</g>
<g clip-path="url(#clip4)" clip-rule="nonzero">
<g clip-path="url(#clip5)" clip-rule="nonzero">
<g clip-path="url(#clip6)" clip-rule="nonzero">
<path style=" stroke:none;fill-rule:nonzero;fill:rgb(3.919983%,27.839661%,41.958618%);fill-opacity:1;" d="M 212.375 71.355469 L 174.824219 101.585938 L 167.382812 92.339844 L 204.933594 62.113281 L 212.375 71.355469 "/>
</g>
</g>
</g>
<g clip-path="url(#clip7)" clip-rule="nonzero">
<g clip-path="url(#clip8)" clip-rule="nonzero">
<g clip-path="url(#clip9)" clip-rule="nonzero">
<path style=" stroke:none;fill-rule:nonzero;fill:rgb(3.919983%,27.839661%,41.958618%);fill-opacity:1;" d="M 174.945312 100.453125 L 211.242188 71.234375 L 204.8125 63.242188 L 168.511719 92.464844 Z M 212.878906 71.984375 L 175.328125 102.210938 C 174.984375 102.488281 174.472656 102.433594 174.195312 102.089844 L 166.757812 92.84375 C 166.476562 92.496094 166.535156 91.992188 166.878906 91.714844 L 204.429688 61.488281 C 204.773438 61.210938 205.28125 61.261719 205.558594 61.609375 L 213 70.851562 C 213.277344 71.199219 213.222656 71.707031 212.878906 71.984375 "/>
</g>
</g>
</g>
<g clip-path="url(#clip10)" clip-rule="nonzero">
<g clip-path="url(#clip11)" clip-rule="nonzero">
<g clip-path="url(#clip12)" clip-rule="nonzero">
<path style=" stroke:none;fill-rule:nonzero;fill:rgb(3.919983%,27.839661%,41.958618%);fill-opacity:1;" d="M 186.265625 110.332031 C 188.324219 112.882812 187.917969 116.617188 185.367188 118.671875 C 182.8125 120.726562 179.082031 120.324219 177.027344 117.769531 L 152.039062 86.726562 C 149.988281 84.179688 150.386719 80.441406 152.941406 78.386719 C 155.492188 76.332031 159.226562 76.738281 161.28125 79.289062 L 186.265625 110.332031 "/>
</g>
</g>
</g>
<g clip-path="url(#clip13)" clip-rule="nonzero">
<g clip-path="url(#clip14)" clip-rule="nonzero">
<g clip-path="url(#clip15)" clip-rule="nonzero">
<path style=" stroke:none;fill-rule:nonzero;fill:rgb(3.919983%,27.839661%,41.958618%);fill-opacity:1;" d="M 153.445312 79.015625 C 151.242188 80.789062 150.894531 84.019531 152.664062 86.222656 L 177.652344 117.265625 C 179.425781 119.46875 182.660156 119.816406 184.863281 118.042969 C 187.0625 116.273438 187.414062 113.039062 185.640625 110.835938 L 160.652344 79.792969 C 158.878906 77.589844 155.648438 77.242188 153.445312 79.015625 Z M 185.871094 119.296875 C 182.976562 121.628906 178.730469 121.167969 176.402344 118.273438 L 151.414062 87.230469 C 149.085938 84.339844 149.542969 80.089844 152.4375 77.761719 C 155.332031 75.433594 159.578125 75.894531 161.90625 78.785156 L 186.894531 109.828125 C 189.222656 112.722656 188.765625 116.96875 185.871094 119.296875 "/>
</g>
</g>
</g>
<g clip-path="url(#clip16)" clip-rule="nonzero">
<g clip-path="url(#clip17)" clip-rule="nonzero">
<g clip-path="url(#clip18)" clip-rule="nonzero">
<path style=" stroke:none;fill-rule:nonzero;fill:rgb(3.919983%,27.839661%,41.958618%);fill-opacity:1;" d="M 173.730469 113.675781 C 175.785156 116.230469 175.378906 119.960938 172.828125 122.019531 C 170.277344 124.070312 166.542969 123.667969 164.488281 121.117188 L 146.089844 98.261719 C 144.035156 95.710938 144.441406 91.976562 146.992188 89.921875 C 149.546875 87.867188 153.28125 88.269531 155.335938 90.820312 L 173.730469 113.675781 "/>
</g>
</g>
</g>
<g clip-path="url(#clip19)" clip-rule="nonzero">
<g clip-path="url(#clip20)" clip-rule="nonzero">
<g clip-path="url(#clip21)" clip-rule="nonzero">
<path style=" stroke:none;fill-rule:nonzero;fill:rgb(3.919983%,27.839661%,41.958618%);fill-opacity:1;" d="M 147.496094 90.550781 C 145.292969 92.324219 144.945312 95.554688 146.71875 97.757812 L 165.113281 120.613281 C 166.886719 122.8125 170.121094 123.164062 172.324219 121.390625 C 174.523438 119.617188 174.878906 116.382812 173.105469 114.179688 L 154.707031 91.324219 C 152.9375 89.125 149.699219 88.777344 147.496094 90.550781 Z M 173.332031 122.644531 C 170.441406 124.972656 166.191406 124.515625 163.859375 121.621094 L 145.464844 98.765625 C 143.132812 95.871094 143.597656 91.625 146.488281 89.296875 C 149.382812 86.96875 153.632812 87.421875 155.960938 90.316406 L 174.359375 113.171875 C 176.6875 116.066406 176.226562 120.3125 173.332031 122.644531 "/>
</g>
</g>
</g>
<g clip-path="url(#clip22)" clip-rule="nonzero">
<g clip-path="url(#clip23)" clip-rule="nonzero">
<g clip-path="url(#clip24)" clip-rule="nonzero">
<path style=" stroke:none;fill-rule:nonzero;fill:rgb(3.919983%,27.839661%,41.958618%);fill-opacity:1;" d="M 218.476562 84.40625 C 220.53125 86.957031 224.261719 87.363281 226.8125 85.304688 C 229.367188 83.25 229.769531 79.519531 227.714844 76.96875 L 202.726562 45.925781 C 200.675781 43.375 196.941406 42.96875 194.386719 45.023438 C 191.835938 47.078125 191.433594 50.8125 193.488281 53.363281 L 218.476562 84.40625 "/>
</g>
</g>
</g>
<g clip-path="url(#clip25)" clip-rule="nonzero">
<g clip-path="url(#clip26)" clip-rule="nonzero">
<g clip-path="url(#clip27)" clip-rule="nonzero">
<path style=" stroke:none;fill-rule:nonzero;fill:rgb(3.919983%,27.839661%,41.958618%);fill-opacity:1;" d="M 194.890625 45.652344 C 192.691406 47.421875 192.339844 50.65625 194.113281 52.859375 L 219.101562 83.902344 C 220.875 86.101562 224.109375 86.453125 226.308594 84.679688 C 228.511719 82.90625 228.863281 79.671875 227.089844 77.472656 L 202.101562 46.429688 C 200.328125 44.226562 197.09375 43.878906 194.890625 45.652344 Z M 227.320312 85.933594 C 224.425781 88.261719 220.179688 87.804688 217.847656 84.910156 L 192.859375 53.867188 C 190.53125 50.976562 190.988281 46.726562 193.882812 44.398438 C 196.777344 42.066406 201.027344 42.53125 203.355469 45.421875 L 228.34375 76.460938 C 230.671875 79.355469 230.214844 83.601562 227.320312 85.933594 "/>
</g>
</g>
</g>
<g clip-path="url(#clip28)" clip-rule="nonzero">
<g clip-path="url(#clip29)" clip-rule="nonzero">
<g clip-path="url(#clip30)" clip-rule="nonzero">
<path style=" stroke:none;fill-rule:nonzero;fill:rgb(3.919983%,27.839661%,41.958618%);fill-opacity:1;" d="M 224.417969 72.875 C 226.476562 75.425781 230.210938 75.828125 232.761719 73.773438 C 235.3125 71.71875 235.71875 67.984375 233.664062 65.433594 L 215.265625 42.578125 C 213.210938 40.023438 209.476562 39.625 206.925781 41.675781 C 204.375 43.730469 203.96875 47.464844 206.023438 50.019531 L 224.417969 72.875 "/>
</g>
</g>
</g>
<g clip-path="url(#clip31)" clip-rule="nonzero">
<g clip-path="url(#clip32)" clip-rule="nonzero">
<g clip-path="url(#clip33)" clip-rule="nonzero">
<path style=" stroke:none;fill-rule:nonzero;fill:rgb(3.919983%,27.839661%,41.958618%);fill-opacity:1;" d="M 207.429688 42.304688 C 205.226562 44.078125 204.875 47.3125 206.648438 49.515625 L 225.046875 72.367188 C 226.820312 74.570312 230.054688 74.921875 232.257812 73.144531 C 234.460938 71.371094 234.808594 68.136719 233.035156 65.9375 L 214.640625 43.082031 C 212.867188 40.878906 209.632812 40.53125 207.429688 42.304688 Z M 233.265625 74.398438 C 230.371094 76.726562 226.125 76.273438 223.792969 73.378906 L 205.398438 50.523438 C 203.066406 47.628906 203.527344 43.378906 206.421875 41.050781 C 209.3125 38.722656 213.5625 39.179688 215.894531 42.074219 L 234.289062 64.929688 C 236.621094 67.820312 236.15625 72.070312 233.265625 74.398438 "/>
</g>
</g>
</g>
<path style=" stroke:none;fill-rule:nonzero;fill:rgb(3.919983%,27.839661%,41.958618%);fill-opacity:1;" d="M 312.28125 24.710938 C 310.410156 24.710938 308.542969 24.804688 306.679688 24.988281 C 304.816406 25.171875 302.964844 25.445312 301.128906 25.808594 C 299.292969 26.175781 297.476562 26.628906 295.6875 27.171875 C 293.894531 27.714844 292.132812 28.347656 290.40625 29.0625 C 288.675781 29.78125 286.984375 30.578125 285.332031 31.460938 C 283.683594 32.34375 282.078125 33.304688 280.519531 34.34375 C 278.964844 35.386719 277.460938 36.5 276.015625 37.6875 C 274.566406 38.875 273.183594 40.132812 271.859375 41.453125 C 270.535156 42.777344 269.277344 44.164062 268.089844 45.613281 C 266.902344 47.058594 265.789062 48.5625 264.75 50.117188 C 263.707031 51.675781 262.746094 53.277344 261.863281 54.929688 C 260.980469 56.582031 260.183594 58.269531 259.464844 60 C 258.75 61.730469 258.121094 63.492188 257.574219 65.285156 C 257.03125 67.074219 256.578125 68.890625 256.214844 70.726562 C 255.847656 72.5625 255.574219 74.410156 255.390625 76.273438 C 255.207031 78.136719 255.113281 80.003906 255.113281 81.878906 C 255.113281 83.75 255.207031 85.617188 255.390625 87.480469 C 255.574219 89.34375 255.847656 91.195312 256.214844 93.03125 C 256.578125 94.867188 257.03125 96.679688 257.574219 98.472656 C 258.121094 100.265625 258.75 102.023438 259.464844 103.753906 C 260.183594 105.484375 260.980469 107.175781 261.863281 108.824219 C 262.746094 110.476562 263.707031 112.082031 264.75 113.636719 C 265.789062 115.195312 266.902344 116.695312 268.089844 118.144531 C 269.277344 119.589844 270.535156 120.976562 271.859375 122.300781 C 273.183594 123.625 274.566406 124.878906 276.015625 126.066406 C 277.460938 127.257812 278.964844 128.371094 280.519531 129.410156 C 282.078125 130.449219 283.683594 131.410156 285.332031 132.292969 C 286.984375 133.175781 288.675781 133.976562 290.40625 134.691406 C 292.132812 135.410156 293.894531 136.039062 295.6875 136.582031 C 297.476562 137.125 299.292969 137.582031 301.128906 137.945312 C 302.964844 138.3125 304.816406 138.585938 306.679688 138.769531 C 308.542969 138.953125 310.410156 139.042969 312.28125 139.042969 C 314.152344 139.042969 316.019531 138.953125 317.882812 138.769531 C 319.746094 138.585938 321.597656 138.3125 323.433594 137.945312 C 325.269531 137.582031 327.085938 137.125 328.875 136.582031 C 330.667969 136.039062 332.429688 135.410156 334.15625 134.691406 C 335.886719 133.976562 337.578125 133.175781 339.230469 132.292969 C 340.878906 131.410156 342.484375 130.449219 344.042969 129.410156 C 345.597656 128.371094 347.101562 127.257812 348.546875 126.066406 C 349.996094 124.878906 351.378906 123.625 352.703125 122.300781 C 354.027344 120.976562 355.285156 119.589844 356.472656 118.144531 C 357.660156 116.695312 358.773438 115.195312 359.8125 113.636719 C 360.855469 112.082031 361.816406 110.476562 362.699219 108.824219 C 363.582031 107.175781 364.378906 105.484375 365.097656 103.753906 C 365.8125 102.023438 366.441406 100.265625 366.984375 98.472656 C 367.53125 96.679688 367.984375 94.867188 368.347656 93.03125 C 368.714844 91.195312 368.988281 89.34375 369.171875 87.480469 C 369.355469 85.617188 369.449219 83.75 369.449219 81.878906 C 369.449219 80.003906 369.355469 78.136719 369.171875 76.273438 C 368.988281 74.410156 368.714844 72.5625 368.347656 70.726562 C 367.984375 68.890625 367.53125 67.074219 366.984375 65.285156 C 366.441406 63.492188 365.8125 61.730469 365.097656 60 C 364.378906 58.269531 363.578125 56.582031 362.699219 54.929688 C 361.816406 53.277344 360.855469 51.675781 359.8125 50.117188 C 358.773438 48.5625 357.660156 47.058594 356.472656 45.613281 C 355.285156 44.164062 354.027344 42.777344 352.703125 41.453125 C 351.378906 40.132812 349.996094 38.875 348.546875 37.6875 C 347.101562 36.5 345.597656 35.386719 344.042969 34.34375 C 342.484375 33.304688 340.878906 32.34375 339.230469 31.460938 C 337.578125 30.578125 335.886719 29.78125 334.15625 29.0625 C 332.429688 28.347656 330.667969 27.714844 328.875 27.171875 C 327.085938 26.628906 325.269531 26.175781 323.433594 25.808594 C 321.597656 25.445312 319.746094 25.171875 317.882812 24.988281 C 316.019531 24.804688 314.152344 24.710938 312.28125 24.710938 Z M 312.28125 24.710938 "/>
<g clip-path="url(#clip34)" clip-rule="nonzero">
<path style=" stroke:none;fill-rule:nonzero;fill:rgb(100%,100%,100%);fill-opacity:1;" d="M 312.449219 132.40625 C 284.714844 132.40625 262.121094 109.816406 262.121094 82.046875 C 262.121094 54.277344 284.714844 31.71875 312.449219 31.71875 C 340.183594 31.71875 362.777344 54.308594 362.777344 82.046875 C 362.808594 109.816406 340.21875 132.40625 312.449219 132.40625 Z M 312.449219 32.570312 C 285.15625 32.570312 262.972656 54.753906 262.972656 82.046875 C 262.972656 109.339844 285.191406 131.554688 312.449219 131.554688 C 339.707031 131.554688 361.957031 109.339844 361.957031 82.046875 C 361.957031 54.753906 339.742188 32.570312 312.449219 32.570312 Z M 312.449219 32.570312 "/>
</g>
<g clip-path="url(#clip35)" clip-rule="nonzero">
<path style=" stroke:none;fill-rule:nonzero;fill:rgb(100%,100%,100%);fill-opacity:1;" d="M 340.183594 118.085938 L 284.464844 118.085938 C 282.523438 118.085938 280.847656 116.503906 280.738281 114.550781 L 277.210938 52.050781 C 277.074219 49.621094 278.75 47.617188 280.9375 47.617188 L 343.710938 47.617188 C 345.898438 47.617188 347.574219 49.621094 347.4375 52.050781 L 343.914062 114.550781 C 343.800781 116.503906 342.125 118.085938 340.183594 118.085938 Z M 340.183594 118.085938 "/>
</g>
<path style=" stroke:none;fill-rule:nonzero;fill:rgb(100%,100%,100%);fill-opacity:1;" d="M 337.40625 114.574219 L 287.242188 114.574219 C 285.496094 114.574219 283.984375 113.144531 283.886719 111.390625 L 280.710938 55.121094 C 280.585938 52.933594 282.097656 51.132812 284.066406 51.132812 L 340.585938 51.132812 C 342.554688 51.132812 344.0625 52.933594 343.941406 55.121094 L 340.765625 111.390625 C 340.664062 113.144531 339.15625 114.574219 337.40625 114.574219 Z M 337.40625 114.574219 "/>
<path style=" stroke:none;fill-rule:nonzero;fill:rgb(3.919983%,27.839661%,41.958618%);fill-opacity:1;" d="M 336.191406 113.039062 L 288.457031 113.039062 C 286.792969 113.039062 285.359375 111.679688 285.265625 110.007812 L 282.242188 56.464844 C 282.125 54.386719 283.5625 52.671875 285.433594 52.671875 L 339.214844 52.671875 C 341.085938 52.671875 342.523438 54.386719 342.40625 56.464844 L 339.382812 110.007812 C 339.289062 111.679688 337.855469 113.039062 336.191406 113.039062 Z M 336.191406 113.039062 "/>
<path style=" stroke:none;fill-rule:nonzero;fill:rgb(100%,100%,100%);fill-opacity:1;" d="M 296.421875 61.441406 C 295.558594 61.882812 295.167969 62.90625 295.507812 63.808594 C 296.628906 66.78125 300.382812 72.808594 312.324219 72.75 C 324.296875 72.808594 328.035156 66.753906 329.148438 63.785156 C 329.488281 62.882812 329.09375 61.867188 328.234375 61.417969 C 320.046875 57.132812 307.011719 56.03125 296.421875 61.441406 Z M 296.421875 61.441406 "/>
<path style=" stroke:none;fill-rule:nonzero;fill:rgb(3.919983%,27.839661%,41.958618%);fill-opacity:1;" d="M 297.972656 62.042969 L 298.359375 61.839844 L 299.519531 64.039062 L 299.128906 64.238281 Z M 297.972656 62.042969 "/>
<path style=" stroke:none;fill-rule:nonzero;fill:rgb(3.919983%,27.839661%,41.958618%);fill-opacity:1;" d="M 302.242188 60.445312 L 302.664062 60.332031 L 303.304688 62.730469 L 302.878906 62.839844 Z M 302.242188 60.445312 "/>
<path style=" stroke:none;fill-rule:nonzero;fill:rgb(3.919983%,27.839661%,41.958618%);fill-opacity:1;" d="M 306.5 59.558594 L 306.929688 59.472656 L 307.433594 61.898438 L 307.003906 61.988281 Z M 306.5 59.558594 "/>
<path style=" stroke:none;fill-rule:nonzero;fill:rgb(3.919983%,27.839661%,41.958618%);fill-opacity:1;" d="M 324.5 63.894531 L 325.65625 61.699219 L 326.042969 61.902344 L 324.886719 64.097656 Z M 324.5 63.894531 "/>
<path style=" stroke:none;fill-rule:nonzero;fill:rgb(3.919983%,27.839661%,41.958618%);fill-opacity:1;" d="M 320.714844 62.585938 L 321.355469 60.1875 L 321.777344 60.300781 L 321.140625 62.699219 Z M 320.714844 62.585938 "/>
<path style=" stroke:none;fill-rule:nonzero;fill:rgb(3.919983%,27.839661%,41.958618%);fill-opacity:1;" d="M 316.585938 61.753906 L 317.089844 59.328125 L 317.515625 59.414062 L 317.015625 61.84375 Z M 316.585938 61.753906 "/>
<path style=" stroke:none;fill-rule:nonzero;fill:rgb(100%,100%,100%);fill-opacity:1;" d="M 311.992188 58.925781 L 312.65625 58.925781 L 312.65625 61.441406 L 311.992188 61.441406 Z M 311.992188 58.925781 "/>
<path style=" stroke:none;fill-rule:nonzero;fill:rgb(3.919983%,27.839661%,41.958618%);fill-opacity:1;" d="M 314.578125 68.695312 C 314.570312 68.667969 314.5625 68.632812 314.550781 68.601562 L 312.324219 60.953125 L 310.097656 68.601562 C 310.023438 68.828125 309.980469 69.074219 309.980469 69.324219 C 309.980469 70.609375 311.03125 71.65625 312.320312 71.65625 C 313.613281 71.65625 314.660156 70.609375 314.660156 69.324219 C 314.664062 69.105469 314.632812 68.894531 314.578125 68.695312 Z M 314.578125 68.695312 "/>
<g clip-path="url(#clip36)" clip-rule="nonzero">
<path style=" stroke:none;fill-rule:nonzero;fill:rgb(100%,100%,100%);fill-opacity:1;" d="M 190.308594 132.40625 C 162.570312 132.40625 139.980469 109.816406 139.980469 82.046875 C 139.980469 54.277344 162.570312 31.71875 190.308594 31.71875 C 218.042969 31.71875 240.632812 54.308594 240.632812 82.046875 C 240.667969 109.816406 218.078125 132.40625 190.308594 132.40625 Z M 190.308594 32.570312 C 163.015625 32.570312 140.832031 54.753906 140.832031 82.046875 C 140.832031 109.339844 163.046875 131.554688 190.308594 131.554688 C 217.566406 131.554688 239.816406 109.339844 239.816406 82.046875 C 239.816406 54.753906 217.601562 32.570312 190.308594 32.570312 Z M 190.308594 32.570312 "/>
</g>
<g clip-path="url(#clip37)" clip-rule="nonzero">
<g clip-path="url(#clip38)" clip-rule="nonzero">
<g clip-path="url(#clip39)" clip-rule="nonzero">
<path style=" stroke:none;fill-rule:evenodd;fill:rgb(100%,100%,100%);fill-opacity:1;" d="M 174.015625 87.789062 L 180.113281 95.757812 L 206.273438 75.699219 L 200.175781 67.730469 Z M 174.015625 87.789062 "/>
</g>
</g>
</g>
<g clip-path="url(#clip40)" clip-rule="nonzero">
<g clip-path="url(#clip41)" clip-rule="nonzero">
<g clip-path="url(#clip42)" clip-rule="nonzero">
<path style=" stroke:none;fill-rule:evenodd;fill:rgb(100%,100%,100%);fill-opacity:1;" d="M 195.226562 52.714844 C 193.648438 53.921875 193.816406 56.808594 195.597656 59.132812 C 201.539062 66.890625 207.480469 74.648438 213.421875 82.40625 C 215.199219 84.730469 217.949219 85.644531 219.523438 84.445312 C 221.101562 83.238281 220.933594 80.351562 219.152344 78.027344 C 213.210938 70.269531 207.269531 62.511719 201.328125 54.753906 C 199.546875 52.429688 196.800781 51.511719 195.226562 52.714844 Z M 195.226562 52.714844 "/>
</g>
</g>
</g>
<g clip-path="url(#clip43)" clip-rule="nonzero">
<g clip-path="url(#clip44)" clip-rule="nonzero">
<g clip-path="url(#clip45)" clip-rule="nonzero">
<path style=" stroke:none;fill-rule:evenodd;fill:rgb(100%,100%,100%);fill-opacity:1;" d="M 160.761719 79.046875 C 159.1875 80.25 159.355469 83.140625 161.136719 85.464844 C 167.078125 93.21875 173.019531 100.980469 178.960938 108.738281 C 180.742188 111.0625 183.488281 111.980469 185.0625 110.773438 C 186.640625 109.570312 186.472656 106.683594 184.691406 104.355469 C 178.75 96.601562 172.808594 88.84375 166.867188 81.085938 C 165.085938 78.757812 162.339844 77.84375 160.761719 79.046875 Z M 160.761719 79.046875 "/>
</g>
</g>
</g>
<g clip-path="url(#clip46)" clip-rule="nonzero">
<g clip-path="url(#clip47)" clip-rule="nonzero">
<g clip-path="url(#clip48)" clip-rule="nonzero">
<path style=" stroke:none;fill-rule:evenodd;fill:rgb(100%,100%,100%);fill-opacity:1;" d="M 152.785156 97.597656 C 151.207031 98.800781 151.375 101.691406 153.15625 104.015625 C 155.085938 106.535156 157.015625 109.054688 158.945312 111.574219 C 160.726562 113.898438 163.472656 114.816406 165.050781 113.613281 C 166.625 112.410156 166.457031 109.519531 164.675781 107.195312 C 162.746094 104.675781 160.816406 102.15625 158.886719 99.636719 C 157.105469 97.3125 154.359375 96.394531 152.785156 97.597656 Z M 152.785156 97.597656 "/>
</g>
</g>
</g>
<g clip-path="url(#clip49)" clip-rule="nonzero">
<g clip-path="url(#clip50)" clip-rule="nonzero">
<g clip-path="url(#clip51)" clip-rule="nonzero">
<path style=" stroke:none;fill-rule:evenodd;fill:rgb(100%,100%,100%);fill-opacity:1;" d="M 156.773438 88.324219 C 155.199219 89.527344 155.367188 92.414062 157.144531 94.738281 C 161.082031 99.878906 165.019531 105.015625 168.953125 110.15625 C 170.734375 112.480469 173.480469 113.398438 175.058594 112.195312 C 176.632812 110.988281 176.464844 108.101562 174.683594 105.777344 C 170.75 100.640625 166.8125 95.5 162.878906 90.359375 C 161.097656 88.035156 158.351562 87.117188 156.773438 88.324219 Z M 156.773438 88.324219 "/>
</g>
</g>
</g>
<g clip-path="url(#clip52)" clip-rule="nonzero">
<g clip-path="url(#clip53)" clip-rule="nonzero">
<g clip-path="url(#clip54)" clip-rule="nonzero">
<path style=" stroke:none;fill-rule:evenodd;fill:rgb(100%,100%,100%);fill-opacity:1;" d="M 221.339844 51.914062 C 219.5625 49.589844 216.8125 48.671875 215.238281 49.878906 C 213.664062 51.082031 213.832031 53.96875 215.609375 56.292969 C 217.539062 58.8125 219.472656 61.335938 221.398438 63.851562 C 223.183594 66.179688 225.925781 67.09375 227.503906 65.890625 C 229.082031 64.6875 228.910156 61.800781 227.132812 59.476562 C 225.203125 56.957031 223.269531 54.4375 221.339844 51.914062 Z M 221.339844 51.914062 "/>
</g>
</g>
</g>
<g clip-path="url(#clip55)" clip-rule="nonzero">
<g clip-path="url(#clip56)" clip-rule="nonzero">
<g clip-path="url(#clip57)" clip-rule="nonzero">
<path style=" stroke:none;fill-rule:evenodd;fill:rgb(100%,100%,100%);fill-opacity:1;" d="M 205.230469 51.296875 C 203.65625 52.5 203.824219 55.386719 205.601562 57.714844 C 209.539062 62.851562 213.476562 67.988281 217.410156 73.128906 C 219.191406 75.453125 221.9375 76.375 223.515625 75.167969 C 225.089844 73.964844 224.921875 71.074219 223.140625 68.75 C 219.203125 63.609375 215.269531 58.472656 211.335938 53.335938 C 209.554688 51.011719 206.808594 50.09375 205.230469 51.296875 Z M 205.230469 51.296875 "/>
</g>
</g>
</g>
<g clip-path="url(#clip58)" clip-rule="nonzero">
<path style=" stroke:none;fill-rule:nonzero;fill:rgb(3.919983%,27.839661%,41.958618%);fill-opacity:1;" d="M 65.648438 24.71875 C 34.074219 24.71875 8.480469 50.273438 8.480469 81.796875 C 8.480469 111.894531 31.820312 136.535156 61.410156 138.703125 C 61.363281 130.007812 61.308594 120.457031 61.269531 119.472656 C 61.257812 119.046875 61.234375 118.636719 61.214844 118.238281 C 61.210938 118.109375 61.199219 117.992188 61.191406 117.863281 C 61.132812 116.886719 61.0625 116 61.015625 115.207031 C 58.457031 114.273438 56.105469 112.59375 54.070312 110.324219 L 54.046875 110.296875 C 53.679688 109.886719 53.328125 109.457031 52.980469 109.007812 C 52.914062 108.917969 52.84375 108.828125 52.773438 108.734375 C 52.460938 108.316406 52.160156 107.886719 51.867188 107.4375 C 51.777344 107.304688 51.691406 107.164062 51.605469 107.023438 C 51.332031 106.585938 51.0625 106.148438 50.804688 105.6875 C 50.722656 105.535156 50.644531 105.371094 50.5625 105.214844 C 50.015625 104.191406 49.511719 103.121094 49.070312 101.988281 L 49.03125 101.894531 C 48.894531 101.542969 48.777344 101.175781 48.652344 100.8125 C 48.515625 100.429688 48.375 100.042969 48.257812 99.648438 C 48.152344 99.304688 48.054688 98.953125 47.960938 98.597656 C 47.839844 98.164062 47.722656 97.726562 47.617188 97.277344 C 47.53125 96.9375 47.460938 96.59375 47.390625 96.25 C 47.289062 95.761719 47.199219 95.269531 47.117188 94.777344 C 47.0625 94.449219 47.007812 94.121094 46.964844 93.789062 C 46.886719 93.226562 46.824219 92.660156 46.769531 92.085938 C 46.742188 91.804688 46.707031 91.527344 46.6875 91.246094 C 46.625 90.382812 46.582031 89.511719 46.570312 88.625 L 46.59375 88.625 C 46.589844 88.417969 46.578125 88.214844 46.59375 87.996094 C 47.753906 73.996094 48.9375 59.980469 50.109375 45.988281 C 50.328125 43.285156 51.070312 41.132812 51.757812 41.148438 C 52.445312 41.164062 53.085938 43.351562 53.195312 46.054688 C 53.234375 47.070312 53.269531 48.09375 53.3125 49.105469 L 53.3125 49.117188 C 53.816406 62.128906 54.316406 75.15625 54.820312 88.175781 C 54.828125 88.332031 54.800781 88.476562 54.796875 88.625 L 56.5625 88.625 C 56.554688 88.4375 56.535156 88.25 56.550781 88.058594 C 57.539062 74.039062 58.519531 60.007812 59.5 46.007812 C 59.695312 43.304688 60.394531 41.132812 61.085938 41.140625 C 61.769531 41.148438 62.453125 43.332031 62.585938 46.03125 C 63.320312 60.054688 64.058594 74.09375 64.78125 88.132812 C 64.792969 88.304688 64.773438 88.460938 64.761719 88.625 L 66.527344 88.625 C 66.519531 88.445312 66.5 88.265625 66.511719 88.078125 C 67.4375 74.050781 68.351562 60.023438 69.269531 46.007812 C 69.445312 43.308594 70.144531 41.140625 70.828125 41.140625 C 71.515625 41.140625 72.207031 43.324219 72.351562 46.023438 C 73.152344 60.042969 73.949219 74.078125 74.75 88.113281 C 74.761719 88.289062 74.738281 88.457031 74.730469 88.625 L 76.496094 88.625 C 76.492188 88.476562 76.46875 88.332031 76.476562 88.175781 C 77.019531 74.136719 77.554688 60.085938 78.101562 46.054688 C 78.210938 43.351562 78.847656 41.164062 79.535156 41.148438 C 80.21875 41.132812 80.96875 43.285156 81.1875 45.988281 C 82.359375 59.980469 83.535156 73.996094 84.699219 87.996094 C 84.714844 88.210938 84.699219 88.417969 84.695312 88.625 L 84.722656 88.625 C 84.601562 101.484375 78.496094 112.210938 70.285156 115.207031 C 70.210938 116.417969 70.089844 117.847656 70.03125 119.472656 C 69.996094 120.457031 69.941406 130.007812 69.890625 138.703125 C 99.480469 136.535156 122.8125 111.894531 122.8125 81.796875 C 122.8125 50.273438 97.21875 24.71875 65.648438 24.71875 "/>
</g>
<g clip-path="url(#clip59)" clip-rule="nonzero">
<path style=" stroke:none;fill-rule:nonzero;fill:rgb(100%,100%,100%);fill-opacity:1;" d="M 65.871094 132.40625 C 38.136719 132.40625 15.546875 109.816406 15.546875 82.046875 C 15.546875 54.277344 38.136719 31.71875 65.871094 31.71875 C 93.609375 31.71875 116.199219 54.308594 116.199219 82.046875 C 116.234375 109.816406 93.640625 132.40625 65.871094 132.40625 Z M 65.871094 32.570312 C 38.578125 32.570312 16.398438 54.753906 16.398438 82.046875 C 16.398438 109.339844 38.613281 131.554688 65.871094 131.554688 C 93.132812 131.554688 115.382812 109.339844 115.382812 82.046875 C 115.382812 54.753906 93.164062 32.570312 65.871094 32.570312 Z M 65.871094 32.570312 "/>
</g>
</g>
</svg>
