<svg id="Layer_1" data-name="Layer 1" xmlns="http://www.w3.org/2000/svg" viewBox="0 0 337 121"><defs><style>.cls-1{fill:#006ab4;}</style></defs><title>iqnava</title><path class="cls-1" d="M27,87.59c-6.77,0-17.42.33-17.42.33L10,84l5.44-.33c3.66-.22,4.33-1.33,6-10.76l8-45.4a54.94,54.94,0,0,0,1-8c0-2.11-1.33-3.11-4.22-3.33l-5.77-.34L20.88,12s10.32.33,16.87.33c6.88,0,17.65-.33,17.65-.33L55,15.88l-5,.34c-3.67.22-4.44.77-5.11,4.88L35.19,76.49a21.82,21.82,0,0,0-.33,3.77c0,2.44,1.11,3.33,4.11,3.44l6.55.33-.45,3.89S34.08,87.59,27,87.59Z"/><path class="cls-1" d="M93.36,89.47c-20.31,0-32.08-11.54-32.08-31.63,0-27.75,19.2-47.39,46.28-47.39,10.55,0,19.32,3.22,25.31,9.21,5.44,5.44,8.1,12.54,8.1,22C141,68.72,120.33,89.47,93.36,89.47Zm27.19,22.76c-2.89,0-4.88-.67-9.1-2.89L89.36,97.46a17.55,17.55,0,0,0-8-2.1c-5.22,0-8.55,4.32-8.66,10.87l-.55.22-2.67-1.77c.11-10,5.44-15.76,14.65-15.76,3.56,0,9.22,1.55,15.32,4.22l10.44,4.55c6.65,2.88,12.65,4.66,15.87,4.66,4.77,0,7.66-3.22,9-10l3.44,1.11C135.76,105.46,129.43,112.23,120.55,112.23Zm-14.43-97c-9.54,0-16.43,4-21.64,12.76-4.66,7.77-7.88,21.2-7.88,33.08,0,15.54,6.66,23.64,19.31,23.64,9.43,0,17-4.77,22.31-14.1,4.66-8.1,7.44-19.86,7.44-31.3C125.66,23.32,119,15.22,106.12,15.22Z"/><path class="cls-1" d="M201,13.62l-2.22.18a3.56,3.56,0,0,0-2,.6c-.48.42-.78,1.44-1.8,6.48l-5.15,25.68c-.43,2-.66,3.78-1,6.18h-5.1l-18.6-32.22-4.38,23.76a24.86,24.86,0,0,0-.48,3.72c0,1.56.72,2.4,2.16,2.46l3.06.18-.3,2.1s-4.08-.18-6.72-.18-7,.18-7,.18l.12-2.1,2.88-.18c1.32-.06,1.92-.9,2.4-3.36,6.9-34.68,5.82-29.16,5.88-29.46.12-.6-.9-2.1-2-2.82a6.88,6.88,0,0,0-3-1l-2.34-.18.18-1.92s3.9.18,6.42.18,6.48-.18,6.48-.18L187.42,44l4.44-24a30.43,30.43,0,0,0,.36-4.2c0-1.26-.9-1.92-2.76-2L187,13.62l.3-1.92s4.31.18,7.07.18,7.08-.18,7.08-.18Z"/><path class="cls-1" d="M230.69,52.56c-3.6,0-9.3.18-9.3.18v-2.1l2.52-.18c1.68-.12,2.64-.78,2.52-1.86l-1.5-11.88c-2.22-.06-4-.18-6.6-.18s-6.66.18-6.66.18l-5.16,9.12a6.69,6.69,0,0,0-1.14,3.42c0,.72.78,1.08,2.58,1.2l2.64.18-.3,2.1s-4.56-.18-7.44-.18c-2.58,0-6.6.18-6.6.18l.3-2.1,2-.18a3.79,3.79,0,0,0,2.82-2.1l21.78-36.78H229c.18,1.38.3,2.88.48,4.26L234,47.16c.3,2.16,1.32,3.12,3.24,3.3l2.21.18v2.1S234.11,52.56,230.69,52.56Zm-8.34-34.38-9.3,16h11.58Z"/><path class="cls-1" d="M280.42,14c-1.26.12-1.8.54-3,2.7l-20,36.06h-5l-5.7-35.28c-.42-2.52-1.08-3.36-2.64-3.48l-2.58-.18V11.7s5.4.18,8.88.18,8.88-.18,8.88-.18v2.1l-3,.18c-1.5.12-1.8.42-1.8,2.16a3.69,3.69,0,0,0,.06.78l4.08,27.72,14-26.1c1-1.92,1.26-2.52,1.26-3.24s-.6-1.26-2-1.32l-3-.18.3-2.1s4,.18,6.53.18,6.48-.18,6.48-.18L282,13.8Z"/><path class="cls-1" d="M305.33,52.56c-3.6,0-9.3.18-9.3.18v-2.1l2.52-.18c1.68-.12,2.64-.78,2.52-1.86l-1.5-11.88c-2.22-.06-4-.18-6.6-.18s-6.66.18-6.66.18l-5.16,9.12A6.69,6.69,0,0,0,280,49.26c0,.72.78,1.08,2.58,1.2l2.64.18-.3,2.1s-4.56-.18-7.44-.18c-2.58,0-6.6.18-6.6.18l.3-2.1,2-.18a3.79,3.79,0,0,0,2.82-2.1l21.78-36.78h5.75c.19,1.38.31,2.88.48,4.26l4.57,31.32c.29,2.16,1.31,3.12,3.23,3.3l2.22.18v2.1S308.75,52.56,305.33,52.56ZM297,18.18l-9.3,16h11.58Z"/><path class="cls-1" d="M155.43,71.15a4.06,4.06,0,0,1-.7-.09V70.6h.43c.76,0,1.24-.63,1.24-1.59s-.51-1.6-1.5-1.6a1.94,1.94,0,0,0-.72.1v5.84c0,1.06,0,1.11.57,1.14l.57,0V75c-.66,0-1.32,0-2,0s-1.25,0-1.87,0v-.48l.44,0c.57,0,.58-.07.58-1.14V68.46c0-1,0-1.13-.58-1.17l-.44,0v-.44q1,0,2.07,0l2.32,0c1,0,2.26.6,2.26,1.79A2.56,2.56,0,0,1,155.43,71.15Z"/><path class="cls-1" d="M165.66,75c-.36,0-.72,0-1.08,0l-2.52-4.1v-.28a1.88,1.88,0,0,0,1.05-.23,1.64,1.64,0,0,0,.79-1.46c0-1-.61-1.53-1.68-1.53a1.91,1.91,0,0,0-.71.1v5.84c0,1.07,0,1.1.58,1.14l.44,0V75c-.62,0-1.25,0-1.87,0s-1.24,0-1.86,0v-.48l.44,0c.57,0,.58-.07.58-1.14V68.46c0-1,0-1.13-.58-1.17l-.44,0v-.44l2.13,0c.8,0,1.6,0,2.39,0,1.51,0,2.28.6,2.28,1.76a2,2,0,0,1-.52,1.32,3,3,0,0,1-1.27.81L166,74a1,1,0,0,0,.84.54V75C166.44,75,166,75,165.66,75Z"/><path class="cls-1" d="M171.46,75.18c-2.75,0-4.32-1.53-4.32-4.19s1.69-4.35,4.59-4.35c2.71,0,4.29,1.55,4.29,4.18S174.32,75.18,171.46,75.18Zm1.72-7.26a2.1,2.1,0,0,0-1.55-.61,2.57,2.57,0,0,0-1.85.68,3.86,3.86,0,0,0-.84,2.73,4.45,4.45,0,0,0,1,3.16,2.08,2.08,0,0,0,1.58.63c1.75,0,2.68-1.18,2.68-3.43A4.46,4.46,0,0,0,173.18,67.92Z"/><path class="cls-1" d="M184.75,73.62A5.14,5.14,0,0,1,181.12,75c-.63,0-1.25,0-1.87,0s-1.24,0-1.86,0v-.28l.38-.21c.18-.1.24-.29.24-.69V68.46c0-1,0-1.13-.57-1.17l-.45,0v-.44q1,0,1.95,0c.95,0,1.9,0,2.86,0a4.31,4.31,0,0,1,3.28,1,3.65,3.65,0,0,1,.92,2.66A4.23,4.23,0,0,1,184.75,73.62Zm-1.34-5.35a4.08,4.08,0,0,0-2.95-.86,6.56,6.56,0,0,0-.76,0v6.84a4.53,4.53,0,0,0,.82.06,3.12,3.12,0,0,0,3.68-3.55A3.37,3.37,0,0,0,183.41,68.27Z"/><path class="cls-1" d="M195.24,67.29c-.54,0-.58.12-.58,1.17V72c0,2.17-1.1,3.22-3.4,3.22-2.07,0-3.36-.9-3.36-2.33V68.46c0-1,0-1.13-.58-1.17l-.44,0v-.44q.93,0,1.86,0c.62,0,1.25,0,1.87,0v.44l-.44,0c-.54,0-.58.12-.58,1.17v3c0,1.24.11,1.81.43,2.19a2.1,2.1,0,0,0,1.68.56,2.25,2.25,0,0,0,1.69-.51c.41-.42.57-1.06.57-2.33V68.46c0-1,0-1.13-.58-1.17l-.44,0v-.44c.45,0,.92,0,1.38,0s.91,0,1.36,0v.44Z"/><path class="cls-1" d="M203.23,75c-1.14,0-2.26,0-3.4,0s-2.43,0-3.64,0v-.46c.59-.74.91-1.18,1.25-1.66l3.67-5.35h-2.66c-.85,0-1,.06-1,.55l-.09.66h-.45V66.81c1.1,0,2.17,0,3.27,0s2.17,0,3.25,0v.42a13.37,13.37,0,0,0-1,1.31l-3.9,5.75h3.31c.61,0,.91-.14,1-.47l.18-.93h.48A14.91,14.91,0,0,0,203.23,75Z"/><path class="cls-1" d="M206.23,75c-.62,0-1.23,0-1.85,0v-.48l.44,0c.56,0,.58-.07.58-1.14V68.46c0-1.07,0-1.09-.58-1.14l-.44,0v-.48c.62,0,1.23,0,1.85,0s1.25,0,1.88,0v.48l-.45,0c-.56.05-.57.07-.57,1.14v4.89c0,1.07,0,1.1.57,1.14l.45,0V75C207.48,75,206.86,75,206.23,75Z"/><path class="cls-1" d="M213.46,75.18c-2.75,0-4.32-1.53-4.32-4.19s1.69-4.35,4.59-4.35c2.71,0,4.29,1.55,4.29,4.18S216.32,75.18,213.46,75.18Zm1.72-7.26a2.1,2.1,0,0,0-1.55-.61,2.57,2.57,0,0,0-1.85.68,3.86,3.86,0,0,0-.84,2.73,4.45,4.45,0,0,0,1,3.16,2.08,2.08,0,0,0,1.58.63c1.75,0,2.68-1.18,2.68-3.43A4.46,4.46,0,0,0,215.18,67.92Z"/><path class="cls-1" d="M227.7,67.29c-.54,0-.58.12-.58,1.17v5.45l0,1.21-.08,0-1-.16-1.46-1.67-3.91-4.7v4.71c0,1.07,0,1.13.57,1.18l.45,0V75c-.46,0-.91,0-1.37,0s-.92,0-1.38,0v-.44l.45,0c.54,0,.57-.12.57-1.18V68.46c0-1,0-1.13-.57-1.17l-.45,0v-.44q.72,0,1.44,0c.34,0,.67,0,1,0,.77,1,1,1.3,1.23,1.59l3.75,4.37V68.46c0-1,0-1.13-.58-1.17l-.44,0v-.44c.45,0,.92,0,1.38,0s.91,0,1.36,0v.44Z"/><path class="cls-1" d="M235.36,74.88l-.06.09c-.69,0-1,0-1.68,0-.9,0-1.81,0-2.71,0-.49,0-1,0-1.48,0v-.28l.39-.21c.18-.1.24-.28.24-.69V68.46c0-1,0-1.13-.58-1.17l-.44,0v-.44c.75,0,1.52,0,2.27,0,.95,0,1.89,0,2.84,0,.44,0,.69,0,1.13,0l.08.09-.17,1.7h-.43l-.1-.9c0-.13-.51-.23-1.17-.23l-1.74,0v2.88c.24,0,.4,0,.8,0h.79c.51,0,.66-.06.69-.25l.07-.69h.48c0,.44,0,.86,0,1.29s0,.86,0,1.29h-.48l-.07-.6c0-.31-.23-.44-.69-.44h-.79c-.26,0-.47,0-.8,0v3.2l1.78,0a2.54,2.54,0,0,0,1.22-.2L235,73h.47Z"/><path class="cls-1" d="M241.23,75c-.63,0-1.24,0-1.86,0v-.48l.44,0c.57,0,.58-.07.58-1.14V68.46c0-1.07,0-1.09-.58-1.14l-.44,0v-.48c.62,0,1.23,0,1.86,0l1.87,0v.48l-.45,0c-.56.05-.57.07-.57,1.14v4.89c0,1.07,0,1.1.57,1.14l.45,0V75C242.47,75,241.85,75,241.23,75Z"/><path class="cls-1" d="M252.7,67.29c-.54,0-.58.12-.58,1.17v5.45l0,1.21-.09,0-1-.16-1.46-1.67-3.91-4.7v4.71c0,1.07,0,1.13.57,1.18l.44,0V75c-.45,0-.91,0-1.36,0s-.93,0-1.38,0v-.44l.44,0c.54,0,.58-.12.58-1.18V68.46c0-1,0-1.13-.58-1.17l-.44,0v-.44q.72,0,1.44,0c.33,0,.67,0,1,0,.77,1,1,1.3,1.24,1.59l3.74,4.37V68.46c0-1,0-1.13-.57-1.17l-.45,0v-.44l1.38,0c.46,0,.91,0,1.37,0v.44Z"/><path class="cls-1" d="M261.2,68.77h-.48l-.06-.83c-.18-.47-.26-.39-.85-.39h-1.4v5.8c0,1.07,0,1.1.58,1.14l.44,0V75c-.62,0-1.25,0-1.87,0s-1.24,0-1.86,0v-.48l.44,0c.57,0,.58-.07.58-1.14v-5.8h-1.4c-.38,0-.82-.08-.86.39l-.06.83h-.48a13.76,13.76,0,0,0-.15-1.9l.07-.06c1.25,0,2.48,0,3.73,0s2.48,0,3.72,0l.07.06A12.14,12.14,0,0,0,261.2,68.77Z"/><path class="cls-1" d="M268.36,74.88l-.06.09c-.69,0-1,0-1.68,0-.9,0-1.81,0-2.71,0-.49,0-1,0-1.48,0v-.28l.39-.21c.18-.1.24-.28.24-.69V68.46c0-1,0-1.13-.58-1.17l-.44,0v-.44c.75,0,1.52,0,2.27,0,.95,0,1.89,0,2.84,0,.44,0,.69,0,1.13,0l.08.09-.17,1.7h-.43l-.1-.9c0-.13-.51-.23-1.17-.23l-1.74,0v2.88c.24,0,.4,0,.8,0h.79c.51,0,.66-.06.69-.25l.07-.69h.48c0,.44,0,.86,0,1.29s0,.86,0,1.29h-.48l-.07-.6c0-.31-.23-.44-.69-.44h-.79c-.26,0-.47,0-.8,0v3.2l1.78,0a2.54,2.54,0,0,0,1.22-.2L268,73h.47Z"/><path class="cls-1" d="M277.72,72.5v2a9.19,9.19,0,0,1-3.57.72c-2.84,0-4.69-1.72-4.69-4.36s1.9-4.18,5-4.18a8.15,8.15,0,0,1,3.13.56l.07.13a13.26,13.26,0,0,0-.27,1.84h-.47l-.06-1a3.46,3.46,0,0,0-2.46-.83c-2,0-3.11,1.26-3.11,3.37,0,2.28,1.3,3.83,3.23,3.83a4.09,4.09,0,0,0,1.52-.3V72.62c0-.31-.18-.42-.68-.44l-.64,0v-.49c.58,0,1.14,0,1.72,0s1.2,0,1.8,0v.41C277.76,72.17,277.72,72.21,277.72,72.5Z"/><path class="cls-1" d="M286.22,75c-.36,0-.72,0-1.07,0l-2.52-4.1v-.28a1.87,1.87,0,0,0,1-.23,1.64,1.64,0,0,0,.79-1.46c0-1-.61-1.53-1.68-1.53a1.91,1.91,0,0,0-.71.1v5.84c0,1.07,0,1.1.58,1.14l.44,0V75c-.62,0-1.24,0-1.87,0s-1.23,0-1.86,0v-.48l.45,0c.56,0,.57-.07.57-1.14V68.46c0-1,0-1.13-.57-1.17l-.45,0v-.44c.71,0,1.43,0,2.14,0s1.59,0,2.39,0c1.51,0,2.27.6,2.27,1.76a2,2,0,0,1-.51,1.32,3,3,0,0,1-1.27.81L286.55,74a1,1,0,0,0,.84.54V75C287,75,286.61,75,286.22,75Z"/><path class="cls-1" d="M294.74,75c-.61,0-1.21,0-1.82,0v-.44l.64,0c.32,0,.24-.47.17-.66l-.54-1.37h-3l-.51,1.35c-.09.26-.08.66.29.68l.6,0V75c-.46,0-.9,0-1.36,0s-.9,0-1.35,0v-.44l.36,0c.26,0,.48-.25.67-.72l2.17-5.25.68-1.81h.86l3.1,7.25a.76.76,0,0,0,.66.53l.29,0V75C296,75,295.38,75,294.74,75Zm-3.08-6.19-1.2,3h2.45Z"/><path class="cls-1" d="M303.68,74.88l-.05.09c-.69,0-1,0-1.68,0-.9,0-1.82,0-2.71,0-.5,0-1,0-1.48,0v-.28l.38-.21c.18-.1.24-.28.24-.69V68.46c0-1.07,0-1.09-.57-1.14l-.45,0v-.48c.63,0,1.24,0,1.86,0s1.25,0,1.87,0v.48l-.44,0c-.56.05-.58.07-.58,1.14v5.82l1.84,0c.52,0,1.14-.1,1.16-.2l.28-1.22h.47Z"/><path class="cls-1" d="M311,74.88,311,75c-.69,0-1,0-1.68,0-.9,0-1.81,0-2.71,0-.49,0-1,0-1.48,0v-.28l.39-.21c.18-.1.24-.28.24-.69V68.46c0-1,0-1.13-.58-1.17l-.44,0v-.44c.75,0,1.52,0,2.28,0,.94,0,1.88,0,2.83,0,.44,0,.69,0,1.13,0l.08.09-.17,1.7h-.43l-.1-.9c0-.13-.51-.23-1.17-.23l-1.74,0v2.88c.24,0,.4,0,.8,0H309c.51,0,.66-.06.69-.25l.07-.69h.48c0,.44,0,.86,0,1.29s0,.86,0,1.29h-.48l-.07-.6c0-.31-.23-.44-.69-.44h-.79c-.26,0-.47,0-.8,0v3.2l1.78,0a2.54,2.54,0,0,0,1.22-.2l.27-1.13h.47Z"/><path class="cls-1" d="M159.18,88a5.14,5.14,0,0,1-3.63,1.39c-.63,0-1.25,0-1.88,0s-1.23,0-1.85,0v-.28l.38-.21c.18-.1.24-.29.24-.69V82.86c0-1,0-1.13-.58-1.17l-.44,0v-.44c.65,0,1.29,0,1.94,0,1,0,1.91,0,2.87,0a4.27,4.27,0,0,1,3.27,1,3.66,3.66,0,0,1,.93,2.66A4.23,4.23,0,0,1,159.18,88Zm-1.34-5.35a4.08,4.08,0,0,0-3-.86,6.56,6.56,0,0,0-.76,0v6.84a4.53,4.53,0,0,0,.82.06,3.12,3.12,0,0,0,3.68-3.55A3.37,3.37,0,0,0,157.84,82.67Z"/><path class="cls-1" d="M163.32,89.37c-.62,0-1.23,0-1.86,0v-.48l.45,0c.56,0,.57-.07.57-1.14V82.86c0-1.07,0-1.09-.57-1.14l-.45,0v-.48c.63,0,1.24,0,1.86,0s1.25,0,1.87,0v.48l-.44,0c-.56,0-.58.07-.58,1.14v4.89c0,1.07,0,1.1.58,1.14l.44,0v.48C164.57,89.39,164,89.37,163.32,89.37Z"/><path class="cls-1" d="M173.09,85.55a4.06,4.06,0,0,1-.7-.09V85h.44c.75,0,1.23-.63,1.23-1.59s-.5-1.6-1.5-1.6a2,2,0,0,0-.72.1v5.84c0,1.06,0,1.11.58,1.14l.56,0v.48c-.66,0-1.32,0-2,0s-1.24,0-1.87,0v-.48l.45,0c.56,0,.57-.07.57-1.14V82.86c0-1,0-1.13-.57-1.17l-.45,0v-.44c.7,0,1.38,0,2.08,0s1.54,0,2.31,0c1,0,2.27.6,2.27,1.79A2.56,2.56,0,0,1,173.09,85.55Z"/><path class="cls-1" d="M183.32,89.37c-.36,0-.72,0-1.08,0l-2.51-4.1V85a1.87,1.87,0,0,0,1-.23,1.64,1.64,0,0,0,.79-1.46c0-1-.61-1.53-1.68-1.53a1.91,1.91,0,0,0-.71.1v5.84c0,1.07,0,1.1.58,1.14l.44,0v.48c-.62,0-1.24,0-1.87,0s-1.23,0-1.86,0v-.48l.45,0c.56,0,.57-.07.57-1.14V82.86c0-1,0-1.13-.57-1.17l-.45,0v-.44c.71,0,1.43,0,2.14,0s1.59,0,2.39,0c1.51,0,2.27.6,2.27,1.76a2,2,0,0,1-.51,1.32,3,3,0,0,1-1.27.81l2.17,3.29a1,1,0,0,0,.84.54v.48C184.1,89.39,183.71,89.37,183.32,89.37Z"/><path class="cls-1" d="M189.12,89.58c-2.74,0-4.32-1.53-4.32-4.19S186.5,81,189.4,81c2.71,0,4.28,1.55,4.28,4.18S192,89.58,189.12,89.58Zm1.73-7.26a2.11,2.11,0,0,0-1.56-.61,2.57,2.57,0,0,0-1.85.68,3.86,3.86,0,0,0-.84,2.73,4.43,4.43,0,0,0,1,3.16,2.1,2.1,0,0,0,1.59.63c1.75,0,2.67-1.18,2.67-3.43A4.46,4.46,0,0,0,190.85,82.32Z"/><path class="cls-1" d="M202.42,88a5.14,5.14,0,0,1-3.64,1.39c-.62,0-1.25,0-1.87,0s-1.23,0-1.86,0v-.28l.39-.21c.18-.1.24-.29.24-.69V82.86c0-1,0-1.13-.58-1.17l-.44,0v-.44c.64,0,1.29,0,1.94,0,1,0,1.91,0,2.87,0a4.3,4.3,0,0,1,3.27,1,3.65,3.65,0,0,1,.92,2.66A4.26,4.26,0,0,1,202.42,88Zm-1.35-5.35a4.06,4.06,0,0,0-2.95-.86,6.39,6.39,0,0,0-.75,0v6.84a4.42,4.42,0,0,0,.81.06,3.11,3.11,0,0,0,3.68-3.55A3.37,3.37,0,0,0,201.07,82.67Z"/><path class="cls-1" d="M209.11,89.58c-2.74,0-4.31-1.53-4.31-4.19S206.49,81,209.39,81c2.71,0,4.28,1.55,4.28,4.18S212,89.58,209.11,89.58Zm1.73-7.26a2.11,2.11,0,0,0-1.56-.61,2.59,2.59,0,0,0-1.85.68,3.9,3.9,0,0,0-.83,2.73,4.48,4.48,0,0,0,1,3.16,2.12,2.12,0,0,0,1.59.63c1.75,0,2.67-1.18,2.67-3.43A4.46,4.46,0,0,0,210.84,82.32Z"/><path class="cls-1" d="M221.87,83.17h-.48l-.06-.82c-.18-.48-.27-.4-.85-.4h-1.41v5.8c0,1.07,0,1.1.58,1.14l.44,0v.48c-.62,0-1.24,0-1.87,0s-1.23,0-1.86,0v-.48l.45,0c.56,0,.57-.07.57-1.14V82H216c-.37,0-.82-.08-.85.4l-.06.82h-.48a13.5,13.5,0,0,0-.16-1.9l.07-.06,3.73,0c1.24,0,2.49,0,3.72,0l.07.06A12.34,12.34,0,0,0,221.87,83.17Z"/><path class="cls-1" d="M229.87,83.17h-.48l-.06-.82c-.18-.48-.26-.4-.85-.4h-1.4v5.8c0,1.07,0,1.1.57,1.14l.45,0v.48c-.63,0-1.25,0-1.87,0s-1.24,0-1.86,0v-.48l.44,0c.56,0,.58-.07.58-1.14V82H224c-.37,0-.81-.08-.85.4l-.06.82h-.48a13.76,13.76,0,0,0-.15-1.9l.07-.06c1.25,0,2.48,0,3.73,0s2.48,0,3.72,0l.07.06A12.14,12.14,0,0,0,229.87,83.17Z"/><path class="cls-1" d="M232.56,89.37c-.62,0-1.23,0-1.86,0v-.48l.45,0c.56,0,.57-.07.57-1.14V82.86c0-1.07,0-1.09-.57-1.14l-.45,0v-.48c.63,0,1.24,0,1.86,0s1.25,0,1.87,0v.48l-.44,0c-.56,0-.58.07-.58,1.14v4.89c0,1.07,0,1.1.58,1.14l.44,0v.48C233.81,89.39,233.19,89.37,232.56,89.37Z"/><path class="cls-1" d="M242.33,85.55a4.06,4.06,0,0,1-.7-.09V85h.44c.75,0,1.23-.63,1.23-1.59s-.5-1.6-1.5-1.6a2,2,0,0,0-.72.1v5.84c0,1.06,0,1.11.58,1.14l.56,0v.48c-.66,0-1.32,0-2,0s-1.24,0-1.87,0v-.48l.45,0c.56,0,.57-.07.57-1.14V82.86c0-1,0-1.13-.57-1.17l-.45,0v-.44c.7,0,1.38,0,2.08,0s1.54,0,2.31,0c1,0,2.27.6,2.27,1.79A2.56,2.56,0,0,1,242.33,85.55Z"/><path class="cls-1" d="M252,89.28l-.06.09c-.68,0-1,0-1.67,0-.9,0-1.82,0-2.71,0-.5,0-1,0-1.48,0v-.28l.38-.21c.18-.1.24-.28.24-.69V82.86c0-1,0-1.13-.57-1.17l-.45,0v-.44c.76,0,1.53,0,2.28,0,1,0,1.89,0,2.83,0,.45,0,.7,0,1.14,0l.07.09-.16,1.7h-.44l-.09-.9c0-.13-.52-.23-1.18-.23l-1.74,0v2.88c.24,0,.41,0,.81,0H250c.5,0,.66-.06.68-.25l.08-.69h.48c0,.44,0,.86,0,1.29s0,.86,0,1.29h-.48l-.08-.6c0-.31-.22-.44-.68-.44h-.79c-.27,0-.47,0-.81,0v3.2l1.79,0a2.49,2.49,0,0,0,1.21-.2l.28-1.13h.47Z"/><path class="cls-1" d="M259.9,89.37c-.36,0-.72,0-1.08,0l-2.52-4.1V85a1.87,1.87,0,0,0,1-.23,1.64,1.64,0,0,0,.79-1.46c0-1-.61-1.53-1.68-1.53a1.82,1.82,0,0,0-.7.1v5.84c0,1.07,0,1.1.57,1.14l.45,0v.48c-.63,0-1.25,0-1.87,0s-1.24,0-1.86,0v-.48l.44,0c.56,0,.58-.07.58-1.14V82.86c0-1,0-1.13-.58-1.17l-.44,0v-.44c.7,0,1.42,0,2.13,0l2.39,0c1.51,0,2.28.6,2.28,1.76a2,2,0,0,1-.52,1.32,3,3,0,0,1-1.27.81l2.17,3.29a1,1,0,0,0,.84.54v.48C260.68,89.39,260.28,89.37,259.9,89.37Z"/><path class="cls-1" d="M268.66,85.55a4.06,4.06,0,0,1-.7-.09V85h.43c.76,0,1.24-.63,1.24-1.59s-.5-1.6-1.5-1.6a2,2,0,0,0-.72.1v5.84c0,1.06,0,1.11.58,1.14l.56,0v.48c-.66,0-1.32,0-2,0s-1.25,0-1.87,0v-.48l.44,0c.57,0,.58-.07.58-1.14V82.86c0-1,0-1.13-.58-1.17l-.44,0v-.44c.7,0,1.38,0,2.07,0l2.32,0c1,0,2.27.6,2.27,1.79A2.56,2.56,0,0,1,268.66,85.55Z"/><path class="cls-1" d="M280.24,81.69c-.54,0-.58.12-.58,1.17v3.5c0,2.17-1.1,3.22-3.41,3.22-2.06,0-3.35-.9-3.35-2.33V82.86c0-1,0-1.13-.58-1.17l-.44,0v-.44c.62,0,1.23,0,1.86,0l1.87,0v.44l-.45,0c-.54,0-.57.12-.57,1.17v3c0,1.24.1,1.81.43,2.19a2.07,2.07,0,0,0,1.68.56,2.26,2.26,0,0,0,1.69-.51c.41-.42.56-1.06.56-2.33V82.86c0-1,0-1.13-.57-1.17l-.45,0v-.44c.46,0,.93,0,1.38,0s.91,0,1.37,0v.44Z"/><path class="cls-1" d="M287.69,89.28l-.06.09c-.68,0-1,0-1.68,0-.9,0-1.81,0-2.71,0-.49,0-1,0-1.48,0v-.28l.39-.21c.18-.1.24-.28.24-.69V82.86c0-1.07,0-1.09-.58-1.14l-.44,0v-.48c.62,0,1.23,0,1.86,0l1.87,0v.48l-.45,0c-.56,0-.57.07-.57,1.14v5.82l1.83,0a2.41,2.41,0,0,0,1.17-.2l.27-1.22h.47Z"/><path class="cls-1" d="M290.56,89.37c-.62,0-1.24,0-1.86,0v-.48l.44,0c.57,0,.58-.07.58-1.14V82.86c0-1.07,0-1.09-.58-1.14l-.44,0v-.48q.93,0,1.86,0c.62,0,1.25,0,1.87,0v.48l-.44,0c-.57,0-.58.07-.58,1.14v4.89c0,1.07,0,1.1.58,1.14l.44,0v.48C291.81,89.39,291.18,89.37,290.56,89.37Z"/><path class="cls-1" d="M300.23,89.41c-1.14,0-2.27,0-3.41,0s-2.42,0-3.63,0V89c.59-.74.91-1.18,1.25-1.66l3.67-5.35h-2.67c-.85,0-1,.06-1,.55l-.1.66h-.44V81.21c1.09,0,2.17,0,3.26,0s2.17,0,3.25,0v.42a15.14,15.14,0,0,0-1,1.32l-3.9,5.74h3.31c.61,0,.91-.14,1-.47l.18-.93h.48A13.58,13.58,0,0,0,300.23,89.41Z"/><path class="cls-1" d="M303.23,89.37c-.62,0-1.23,0-1.86,0v-.48l.45,0c.56,0,.57-.07.57-1.14V82.86c0-1.07,0-1.09-.57-1.14l-.45,0v-.48c.63,0,1.24,0,1.86,0s1.25,0,1.87,0v.48l-.44,0c-.57,0-.58.07-.58,1.14v4.89c0,1.07,0,1.1.58,1.14l.44,0v.48C304.48,89.39,303.85,89.37,303.23,89.37Z"/><path class="cls-1" d="M312.36,89.28l-.06.09c-.68,0-1,0-1.68,0-.9,0-1.81,0-2.71,0-.49,0-1,0-1.47,0v-.28l.38-.21c.18-.1.24-.28.24-.69V82.86c0-1,0-1.13-.58-1.17l-.44,0v-.44q1.14,0,2.28,0c.95,0,1.88,0,2.83,0,.44,0,.69,0,1.14,0l.07.09-.17,1.7h-.43l-.09-.9c0-.13-.52-.23-1.18-.23l-1.74,0v2.88c.24,0,.41,0,.8,0h.8c.5,0,.66-.06.68-.25l.07-.69h.48c0,.44,0,.86,0,1.29s0,.86,0,1.29h-.48l-.07-.6c0-.31-.23-.44-.68-.44h-.8c-.26,0-.46,0-.8,0v3.2l1.79,0a2.49,2.49,0,0,0,1.21-.2l.27-1.13h.47Z"/><path class="cls-1" d="M318.46,98.57a5.3,5.3,0,1,1,5.31-5.29A5.29,5.29,0,0,1,318.46,98.57Zm0-9.88a4.58,4.58,0,1,0,4.59,4.59A4.57,4.57,0,0,0,318.46,88.69ZM320.59,96l-.79,0L318,93.2l0-.22h.51a1.24,1.24,0,0,0,1.22-1.19c0-.54-.53-.81-1.1-.81a3,3,0,0,0-.42,0l-.72,4.15a.75.75,0,0,0,0,.26.2.2,0,0,0,.22.19l.53,0-.05.38c-.48,0-.94,0-1.42,0s-.92,0-1.38,0l0-.38.44,0c.22,0,.28-.39.34-.7l.63-3.62a.41.41,0,0,0,0-.15c0-.15-.15-.21-.32-.21l-.4,0,.06-.36c.49,0,1,0,1.48,0s1.05,0,1.58,0c.93,0,1.81.35,1.83,1.19a1.29,1.29,0,0,1-.66,1.12,2.9,2.9,0,0,1-1.05.35l1.35,2c.1.15.24.36.36.38h0l.28.06,0,.33C321.18,96,320.89,96,320.59,96Z"/></svg>